<svg xmlns="http://www.w3.org/2000/svg" fill="none" viewBox="0 0 195 26">
  <path fill="#1570EF" d="m9.619.921-.613 1.997 1.295.308.914-.82L9.62.92Zm5.903.003-1.53 1.423.969.914 1.201-.254-.64-2.083ZM12.478 3.71a8.165 8.165 0 0 0-1.99.278c-4.364 1.17-6.96 5.667-5.791 10.03a8.142 8.142 0 0 0 1.9 3.441l.025.035.004-.003a8.192 8.192 0 0 0 8.099 2.316c4.363-1.169 6.96-5.665 5.79-10.028-.95-3.545-4.096-5.923-7.583-6.063a8.147 8.147 0 0 0-.454-.006Zm-7.972.161.468 2.036 1.275-.382.381-1.166-2.124-.488Zm16.127.009-2.038.467.383 1.276 1.165.38.49-2.123Zm-8.003.703a7.307 7.307 0 0 1 7.039 5.423 7.305 7.305 0 0 1-5.17 8.956 7.304 7.304 0 0 1-7.2-2.03l-.002-.002a7.1 7.1 0 0 1-.863-1.702c-1.147-3.318.497-7.205 3.888-8.367 2.857-.98 6.196.423 7.182 3.316.826 2.425-.38 5.264-2.857 6.1-2.063.697-4.472-.322-5.172-2.408-.58-1.728.283-3.748 2.045-4.333 1.45-.482 3.138.236 3.62 1.696.376 1.143-.159 2.472-1.272 2.927.505-.487.74-1.227.547-1.948a1.994 1.994 0 0 0-2.434-1.405 1.993 1.993 0 0 0-1.274 2.78l.003.007.01.02c.561 1.253 1.963 1.858 3.276 1.43 1.699-.553 2.514-2.451 1.976-4.085-.643-1.95-2.84-2.882-4.729-2.254-2.248.746-3.327 3.274-2.598 5.444.863 2.575 3.78 3.804 6.284 2.958 2.96-1 4.382-4.344 3.404-7.212-.936-2.745-3.65-4.326-6.404-4.215a6.652 6.652 0 0 0-1.891.353c-2.632.902-4.333 3.22-4.745 5.793a7.307 7.307 0 0 1 5.421-6.99 7.336 7.336 0 0 1 1.916-.252ZM3.635 8.341l-2.083.639 1.422 1.53.914-.968-.253-1.201Zm17.949.038-.308 1.295.82.914 1.486-1.597-1.998-.612Zm-9.055 3.234c.48.012.908.334 1.039.824a1.103 1.103 0 0 1-.784 1.359 1.103 1.103 0 0 1-1.28-.573 2.082 2.082 0 0 1-.06-.163l-.006.002a1.104 1.104 0 0 1 .995-1.447c.032-.002.064-.002.096-.002Zm-9.496 1.675-1.484 1.595 1.996.614.308-1.297-.82-.912Zm19.122.077-.914.969.253 1.2 2.083-.64-1.422-1.529Zm-17.17 4.506-.488 2.126 2.037-.468-.383-1.276-1.166-.382Zm15.17.098-1.276.381-.379 1.167 2.124.488-.469-2.036Zm-9.986 2.644-1.2.254.638 2.083 1.53-1.423-.968-.914Zm4.659.035-.914.82 1.596 1.486.614-1.998-1.296-.308ZM49.457 6.242h-6.715V20h-3.047V6.242H32.97V3.195h16.488v3.047Zm13.02 9.563c0 .422-.075.879-.223 1.37-.148.485-.39.938-.727 1.36-.328.414-.761.762-1.3 1.043-.532.281-1.18.422-1.946.422h-5.496c-.422 0-.879-.074-1.37-.223a4.214 4.214 0 0 1-1.36-.715 4.141 4.141 0 0 1-1.043-1.3c-.282-.54-.422-1.192-.422-1.957 0-.422.074-.88.222-1.371a4.06 4.06 0 0 1 .715-1.36c.336-.422.77-.773 1.301-1.054.54-.282 1.191-.422 1.957-.422h5.496v2.906h-5.496c-.414 0-.734.129-.96.387-.227.25-.34.562-.34.937 0 .399.128.711.386.938.266.218.578.328.938.328h5.472c.414 0 .735-.125.961-.375.227-.25.34-.563.34-.938v-4.254c0-.398-.125-.714-.375-.949-.242-.234-.55-.351-.926-.351H51.59V7.332h6.691c.422 0 .875.074 1.36.223.492.148.945.39 1.359.726.422.328.773.762 1.055 1.301.28.531.422 1.18.422 1.945v4.278ZM68.172 4.73h-3.047V1.977h3.047V4.73Zm0 16.489c0 .523-.066.992-.2 1.406-.132.422-.308.79-.527 1.102-.218.32-.472.59-.761.808a4.25 4.25 0 0 1-.915.55 4.266 4.266 0 0 1-.949.306c-.32.07-.625.105-.914.105H58.41V22.45h5.496c.407 0 .711-.105.914-.316.203-.211.305-.516.305-.914V7.332h3.047v13.887ZM85 15.723c0 .523-.066.996-.2 1.418a4.23 4.23 0 0 1-.527 1.101 3.755 3.755 0 0 1-.761.809 4.528 4.528 0 0 1-.914.539c-.313.14-.633.246-.961.316a4.77 4.77 0 0 1-.914.094h-5.496c-.524 0-.993-.066-1.407-.2a4.23 4.23 0 0 1-1.101-.527 4.003 4.003 0 0 1-.809-.773 4.668 4.668 0 0 1-.855-1.863 4.905 4.905 0 0 1-.094-.914v-4.125c0-.782.14-1.442.422-1.98.289-.548.644-.99 1.066-1.325.43-.344.895-.59 1.395-.738.5-.149.96-.223 1.383-.223h5.496v3.047H75.25c-.406 0-.715.105-.926.316-.21.203-.316.504-.316.903v4.101c0 .414.101.727.305.938.21.21.515.316.914.316h5.496c.414 0 .722-.105.925-.316.204-.211.305-.516.305-.914V1.977H85v13.746ZM91 4.73h-3.047V1.977H91V4.73ZM91 20h-3.047V7.332H91V20Zm16.828-4.277c0 .523-.066.996-.199 1.418a4.261 4.261 0 0 1-.527 1.101 3.766 3.766 0 0 1-.762.809 4.536 4.536 0 0 1-.914.539c-.313.14-.633.246-.961.316-.32.063-.625.094-.914.094h-5.496c-.524 0-.993-.066-1.407-.2a4.23 4.23 0 0 1-1.101-.527 4.006 4.006 0 0 1-.809-.773 4.668 4.668 0 0 1-.855-1.863 4.905 4.905 0 0 1-.094-.914v-4.125c0-.782.14-1.442.422-1.98.289-.548.645-.99 1.066-1.325.43-.344.895-.59 1.395-.738.5-.149.96-.223 1.383-.223h5.496v3.047h-5.473c-.406 0-.715.105-.926.316-.21.203-.316.504-.316.903v4.101c0 .414.102.727.305.938.21.21.515.316.914.316h5.496c.414 0 .722-.105.926-.316.203-.211.304-.516.304-.914V1.977h3.047v13.746Zm27.199-.668a5.3 5.3 0 0 1-.234 1.629 4.722 4.722 0 0 1-.598 1.265c-.25.367-.543.68-.879.938a5.37 5.37 0 0 1-1.043.633 5.185 5.185 0 0 1-1.101.363 5.02 5.02 0 0 1-1.043.117h-11.754v-3.047h11.754c.586 0 1.039-.172 1.359-.515.328-.344.492-.805.492-1.383 0-.282-.042-.54-.128-.774a1.74 1.74 0 0 0-.375-.61 1.571 1.571 0 0 0-.586-.398 1.98 1.98 0 0 0-.762-.14h-7.008a5.55 5.55 0 0 1-1.594-.258 4.933 4.933 0 0 1-1.593-.855c-.485-.391-.891-.903-1.219-1.536-.32-.632-.481-1.406-.481-2.32 0-.914.161-1.684.481-2.309.328-.632.734-1.144 1.219-1.535a4.651 4.651 0 0 1 1.593-.855 5.33 5.33 0 0 1 1.594-.27h10.371v3.047h-10.371c-.578 0-1.031.176-1.359.528-.321.351-.481.816-.481 1.394 0 .586.16 1.05.481 1.395.328.336.781.504 1.359.504h7.031c.328.007.676.054 1.043.14.367.078.731.203 1.09.375.367.172.715.39 1.043.656.328.258.617.57.867.938.258.367.461.789.61 1.265.148.477.222 1.016.222 1.618Zm13.172-4.676h-5.32V20h-3.082v-9.621h-3.961V7.332h3.961V3.195h3.082v4.137h5.32v3.047Zm15.739 5.344c0 .523-.067.996-.2 1.418a4.23 4.23 0 0 1-.527 1.101 3.766 3.766 0 0 1-.762.809 4.536 4.536 0 0 1-.914.539 4.76 4.76 0 0 1-.961.316c-.32.063-.625.094-.914.094h-5.496c-.422 0-.883-.074-1.383-.223-.5-.148-.965-.39-1.394-.726a4.303 4.303 0 0 1-1.067-1.324c-.281-.547-.422-1.215-.422-2.004v-4.125c0-.782.141-1.442.422-1.98a4.055 4.055 0 0 1 2.461-2.063c.5-.149.961-.223 1.383-.223h5.496c.781 0 1.445.14 1.992.422.547.281.989.637 1.325 1.066.335.422.578.883.726 1.383.156.5.235.965.235 1.395v4.125Zm-3.047-4.102c0-.422-.106-.734-.317-.937-.211-.204-.515-.305-.914-.305h-5.472c-.407 0-.715.105-.926.316-.211.203-.317.504-.317.903v4.125c0 .398.106.703.317.914.211.21.519.316.926.316h5.472c.414 0 .723-.105.926-.316.203-.211.305-.516.305-.914V11.62Zm16.734-1.242h-6.855c-.415 0-.727.105-.938.316-.211.203-.316.504-.316.903V20h-3.047v-8.402c0-.524.066-.993.199-1.407.133-.414.309-.777.527-1.09.227-.32.485-.59.774-.808a4.328 4.328 0 0 1 1.863-.856 4.4 4.4 0 0 1 .914-.105h6.879v3.047Zm15.598 1.148c0 .422-.075.88-.223 1.371a4.093 4.093 0 0 1-.727 1.36c-.328.414-.761.762-1.3 1.043-.532.281-1.18.422-1.946.422h-5.496v-2.895h5.496c.414 0 .735-.125.961-.375.227-.258.34-.574.34-.95 0-.398-.129-.71-.387-.937a1.31 1.31 0 0 0-.914-.34h-5.496c-.414 0-.734.13-.961.387-.226.25-.34.563-.34.938v4.254c0 .406.125.722.375.949.258.226.575.34.95.34h5.472V20h-5.496c-.422 0-.879-.074-1.371-.223a4.217 4.217 0 0 1-1.359-.715 4.139 4.139 0 0 1-1.043-1.3c-.281-.54-.422-1.192-.422-1.957v-4.278c0-.421.074-.875.223-1.359.148-.492.386-.945.714-1.36a4.07 4.07 0 0 1 1.301-1.054c.539-.281 1.192-.422 1.957-.422h5.496c.422 0 .875.074 1.36.223.492.148.945.39 1.359.726a3.9 3.9 0 0 1 1.055 1.301c.281.531.422 1.18.422 1.945Z"/>
</svg>
